<svg width="105" height="162" viewBox="0 0 105 162" fill="none" xmlns="http://www.w3.org/2000/svg">
<path d="M70.1676 44.2461L70.5192 47.2344V48.2012C70.5192 48.9238 70.236 49.2852 69.6696 49.2852C68.9469 49.2852 68.3219 48.9922 67.7946 48.4062C67.2867 47.8203 66.8375 47.2734 66.4469 46.7656C66.0758 46.2578 65.6364 45.6719 65.1285 45.0078C64.6403 44.3242 63.7614 43.5332 62.4918 42.6348C61.2223 41.7168 59.9918 41.043 58.8004 40.6133C56.2223 39.6367 53.9274 39.0898 51.9156 38.9727V66.0723C53.0094 66.6387 54.5524 67.4102 56.5446 68.3867C58.5563 69.3438 60.0211 70.0664 60.9391 70.5547C61.8766 71.0234 63.1071 71.6875 64.6305 72.5469C66.1539 73.4062 67.2867 74.1484 68.0289 74.7734C68.7711 75.3789 69.6305 76.1699 70.6071 77.1465C71.6031 78.1035 72.3258 79.0508 72.775 79.9883C73.9078 82.3906 74.4742 84.7051 74.4742 86.9316C74.4742 89.1582 74.2106 91.1309 73.6832 92.8496C73.1754 94.5684 72.4821 96.0625 71.6031 97.332C70.7242 98.582 69.7184 99.7441 68.5856 100.818C67.4528 101.873 66.2614 102.752 65.0114 103.455C63.7614 104.158 62.5114 104.783 61.2614 105.33C60.0114 105.877 58.8199 106.297 57.6871 106.59C55.1676 107.273 53.2047 107.693 51.7985 107.85V127.039H48.0778V107.967C43.0387 107.967 38.7906 107.596 35.3336 106.854C31.8961 106.092 29.5524 105.447 28.3024 104.92C27.0524 104.393 26.2809 103.865 25.9879 103.338C25.6949 102.791 25.4508 101.863 25.2555 100.555C25.0797 99.2461 24.9528 98.3379 24.8746 97.8301C24.816 97.3027 24.6989 96.541 24.5231 95.5449C24.3668 94.5293 24.2301 93.709 24.1129 93.084C24.0153 92.4395 23.9664 92.0391 23.9664 91.8828C23.9664 90.6719 24.4059 90.0664 25.2848 90.0664C26.0465 90.0664 26.5641 90.3789 26.8375 91.0039C27.111 91.6094 27.3258 92.1758 27.4821 92.7031C27.6578 93.2109 27.8824 93.7773 28.1559 94.4023C28.4293 95.0078 28.7614 95.6426 29.152 96.3066C29.5426 96.9512 30.0992 97.6152 30.8219 98.2988C31.5446 98.9824 32.3844 99.6367 33.3414 100.262C35.4899 101.668 38.0778 102.703 41.1051 103.367C44.1324 104.031 46.4567 104.363 48.0778 104.363V74.0117C47.7262 73.8359 47.0035 73.4844 45.9098 72.957C44.816 72.4297 43.9567 72.0195 43.3317 71.7266C42.7067 71.4141 41.8082 70.9453 40.6364 70.3203C39.4645 69.6758 38.5074 69.1191 37.7653 68.6504C37.0231 68.1816 36.1246 67.5859 35.0699 66.8633C34.0153 66.1211 33.1461 65.4277 32.4625 64.7832C31.7789 64.1387 31.0563 63.3867 30.2946 62.5273C29.5328 61.6484 28.9371 60.7891 28.5074 59.9492C27.4723 57.9961 26.9547 56.082 26.9547 54.207C26.9547 52.332 27.1989 50.6133 27.6871 49.0508C28.1754 47.4688 28.8297 46.1113 29.65 44.9785C30.4703 43.8457 31.4078 42.8008 32.4625 41.8438C33.5172 40.8867 34.6305 40.0957 35.8024 39.4707C36.9938 38.8457 38.1754 38.2891 39.3473 37.8008C40.5192 37.3125 41.6324 36.9316 42.6871 36.6582C44.5817 36.1699 46.4176 35.8184 48.1949 35.6035V25.9941H51.9156V35.6035C58.0289 36.2871 61.5348 36.7461 62.4332 36.9805C63.4879 37.2539 64.1422 37.3906 64.3961 37.3906L67.9996 36.5703C68.5074 36.5703 68.8492 36.8145 69.025 37.3027C69.2008 37.7715 69.3571 38.5625 69.4938 39.6758C69.65 40.7695 69.7477 41.4531 69.7867 41.7266C69.8258 41.9805 69.8746 42.3516 69.9332 42.8398C70.0114 43.3281 70.0895 43.7969 70.1676 44.2461ZM36.1832 46.5898C35.7145 47.8203 35.4801 49.0898 35.4801 50.3984C35.4801 51.6875 35.7145 52.8984 36.1832 54.0312C36.652 55.1641 37.2574 56.1895 37.9996 57.1074C38.7418 58.0059 39.5621 58.875 40.4606 59.7148C41.3785 60.5352 42.2965 61.2383 43.2145 61.8242C44.9918 62.9961 46.652 63.9727 48.1949 64.7539V38.9727C41.9254 39.6758 37.9215 42.2148 36.1832 46.5898ZM51.7985 104.246C56.6031 103.934 60.6364 101.609 63.8981 97.2734C65.5192 95.125 66.3297 93.1035 66.3297 91.209C66.3297 89.3145 66.0563 87.7422 65.5094 86.4922C64.9821 85.2227 64.2887 84.1094 63.4293 83.1523C62.5895 82.1758 61.652 81.2578 60.6168 80.3984C59.5817 79.5391 58.5465 78.8066 57.5114 78.2012C55.4606 77.0098 53.5563 76.0527 51.7985 75.3301V104.246Z" fill="black"/>
<path d="M104.461 49C79.2939 69.6667 43.4606 82.5 17.9606 74L41.9606 102L104.461 49Z" fill="#00A1D3"/>
<path d="M10.9834 57C10.696 68.0017 32.0554 94.7181 41.9606 102L55.4606 90.5C49.7076 87.8046 31.449 84.985 10.9834 57Z" fill="#DEEDF1"/>
</svg>
