<svg width="135" height="152" viewBox="0 0 135 152" fill="none" xmlns="http://www.w3.org/2000/svg">
<path d="M70.1676 68.2461L70.5192 71.2344V72.2012C70.5192 72.9238 70.236 73.2852 69.6696 73.2852C68.9469 73.2852 68.3219 72.9922 67.7946 72.4062C67.2868 71.8203 66.8375 71.2734 66.4469 70.7656C66.0758 70.2578 65.6364 69.6719 65.1285 69.0078C64.6403 68.3242 63.7614 67.5332 62.4918 66.6348C61.2223 65.7168 59.9918 65.043 58.8004 64.6133C56.2223 63.6367 53.9274 63.0898 51.9157 62.9727V90.0723C53.0094 90.6387 54.5524 91.4102 56.5446 92.3867C58.5563 93.3438 60.0211 94.0664 60.9391 94.5547C61.8766 95.0234 63.1071 95.6875 64.6305 96.5469C66.1539 97.4062 67.2868 98.1484 68.0289 98.7734C68.7711 99.3789 69.6305 100.17 70.6071 101.146C71.6032 102.104 72.3258 103.051 72.775 103.988C73.9078 106.391 74.4743 108.705 74.4743 110.932C74.4743 113.158 74.2106 115.131 73.6832 116.85C73.1754 118.568 72.4821 120.062 71.6032 121.332C70.7243 122.582 69.7184 123.744 68.5856 124.818C67.4528 125.873 66.2614 126.752 65.0114 127.455C63.7614 128.158 62.5114 128.783 61.2614 129.33C60.0114 129.877 58.82 130.297 57.6871 130.59C55.1676 131.273 53.2047 131.693 51.7985 131.85V151.039H48.0778V131.967C43.0387 131.967 38.7907 131.596 35.3336 130.854C31.8961 130.092 29.5524 129.447 28.3024 128.92C27.0524 128.393 26.2809 127.865 25.9879 127.338C25.695 126.791 25.4508 125.863 25.2555 124.555C25.0797 123.246 24.9528 122.338 24.8746 121.83C24.816 121.303 24.6989 120.541 24.5231 119.545C24.3668 118.529 24.2301 117.709 24.1129 117.084C24.0153 116.439 23.9664 116.039 23.9664 115.883C23.9664 114.672 24.4059 114.066 25.2848 114.066C26.0465 114.066 26.5641 114.379 26.8375 115.004C27.111 115.609 27.3258 116.176 27.4821 116.703C27.6578 117.211 27.8825 117.777 28.1559 118.402C28.4293 119.008 28.7614 119.643 29.152 120.307C29.5426 120.951 30.0993 121.615 30.8219 122.299C31.5446 122.982 32.3844 123.637 33.3414 124.262C35.4899 125.668 38.0778 126.703 41.1051 127.367C44.1325 128.031 46.4567 128.363 48.0778 128.363V98.0117C47.7262 97.8359 47.0035 97.4844 45.9098 96.957C44.816 96.4297 43.9567 96.0195 43.3317 95.7266C42.7067 95.4141 41.8082 94.9453 40.6364 94.3203C39.4645 93.6758 38.5075 93.1191 37.7653 92.6504C37.0231 92.1816 36.1246 91.5859 35.07 90.8633C34.0153 90.1211 33.1461 89.4277 32.4625 88.7832C31.7789 88.1387 31.0563 87.3867 30.2946 86.5273C29.5328 85.6484 28.9371 84.7891 28.5075 83.9492C27.4723 81.9961 26.9547 80.082 26.9547 78.207C26.9547 76.332 27.1989 74.6133 27.6871 73.0508C28.1754 71.4688 28.8297 70.1113 29.65 68.9785C30.4703 67.8457 31.4078 66.8008 32.4625 65.8438C33.5172 64.8867 34.6305 64.0957 35.8024 63.4707C36.9938 62.8457 38.1754 62.2891 39.3473 61.8008C40.5192 61.3125 41.6325 60.9316 42.6871 60.6582C44.5817 60.1699 46.4176 59.8184 48.195 59.6035V49.9941H51.9157V59.6035C58.0289 60.2871 61.5348 60.7461 62.4332 60.9805C63.4879 61.2539 64.1422 61.3906 64.3961 61.3906L67.9996 60.5703C68.5075 60.5703 68.8493 60.8145 69.025 61.3027C69.2008 61.7715 69.3571 62.5625 69.4938 63.6758C69.65 64.7695 69.7477 65.4531 69.7868 65.7266C69.8258 65.9805 69.8746 66.3516 69.9332 66.8398C70.0114 67.3281 70.0895 67.7969 70.1676 68.2461ZM36.1832 70.5898C35.7145 71.8203 35.4801 73.0898 35.4801 74.3984C35.4801 75.6875 35.7145 76.8984 36.1832 78.0312C36.652 79.1641 37.2575 80.1895 37.9996 81.1074C38.7418 82.0059 39.5621 82.875 40.4606 83.7148C41.3785 84.5352 42.2965 85.2383 43.2145 85.8242C44.9918 86.9961 46.652 87.9727 48.195 88.7539V62.9727C41.9254 63.6758 37.9215 66.2148 36.1832 70.5898ZM51.7985 128.246C56.6032 127.934 60.6364 125.609 63.8981 121.273C65.5192 119.125 66.3297 117.104 66.3297 115.209C66.3297 113.314 66.0563 111.742 65.5094 110.492C64.9821 109.223 64.2887 108.109 63.4293 107.152C62.5895 106.176 61.652 105.258 60.6168 104.398C59.5817 103.539 58.5465 102.807 57.5114 102.201C55.4606 101.01 53.5563 100.053 51.7985 99.3301V128.246Z" fill="black"/>
<path d="M104.461 73C79.2939 93.6667 43.4606 106.5 17.9606 98L41.9606 126L104.461 73Z" fill="#00A1D3"/>
<path d="M10.9834 81C10.696 92.0017 32.0554 118.718 41.9606 126L55.4606 114.5C49.7077 111.805 31.449 108.985 10.9834 81Z" fill="#004154"/>
</svg>
